<mxfile host="app.diagrams.net" modified="2023-08-15T01:11:09.125Z" agent="Mozilla/5.0 (Windows NT 10.0; Win64; x64) AppleWebKit/537.36 (KHTML, like Gecko) Chrome/115.0.0.0 Safari/537.36" version="21.6.8" etag="S9dFUO0H49TtenevKrnw" type="github">
  <diagram id="2tXDjWVBtzTvlOlx2N9X" name="Page-1">
    <mxGraphModel dx="643" dy="294" grid="1" gridSize="10" guides="1" tooltips="1" connect="1" arrows="1" fold="1" page="1" pageScale="1" pageWidth="3840" pageHeight="2400" math="0" shadow="0">
      <root>
        <mxCell id="0" />
        <mxCell id="1" parent="0" />
        <mxCell id="TRd4f3PxuL4wZc3-VBU7-1" value="&lt;i&gt;Animal&lt;/i&gt;" style="swimlane;fontStyle=0;childLayout=stackLayout;horizontal=1;startSize=26;fillColor=none;horizontalStack=0;resizeParent=1;resizeParentMax=0;resizeLast=0;collapsible=1;marginBottom=0;whiteSpace=wrap;html=1;" vertex="1" parent="1">
          <mxGeometry x="270" y="120" width="140" height="250" as="geometry" />
        </mxCell>
        <mxCell id="TRd4f3PxuL4wZc3-VBU7-2" value="&lt;div&gt;- name&lt;/div&gt;&lt;div&gt;- height&lt;/div&gt;&lt;div&gt;- weight&lt;/div&gt;&lt;div&gt;- favFood&lt;/div&gt;&lt;div&gt;- speed&lt;/div&gt;&lt;div&gt;- sound;&lt;/div&gt;&lt;div&gt;- flyBehavior;&lt;/div&gt;" style="text;strokeColor=none;fillColor=none;align=left;verticalAlign=top;spacingLeft=4;spacingRight=4;overflow=hidden;rotatable=0;points=[[0,0.5],[1,0.5]];portConstraint=eastwest;whiteSpace=wrap;html=1;" vertex="1" parent="TRd4f3PxuL4wZc3-VBU7-1">
          <mxGeometry y="26" width="140" height="104" as="geometry" />
        </mxCell>
        <mxCell id="TRd4f3PxuL4wZc3-VBU7-6" value="" style="line;strokeWidth=1;fillColor=none;align=left;verticalAlign=middle;spacingTop=-1;spacingLeft=3;spacingRight=3;rotatable=0;labelPosition=right;points=[];portConstraint=eastwest;strokeColor=inherit;" vertex="1" parent="TRd4f3PxuL4wZc3-VBU7-1">
          <mxGeometry y="130" width="140" height="8" as="geometry" />
        </mxCell>
        <mxCell id="TRd4f3PxuL4wZc3-VBU7-7" value="&lt;div&gt;- name&lt;/div&gt;&lt;div&gt;- height&lt;/div&gt;&lt;div&gt;- weight&lt;/div&gt;&lt;div&gt;- favFood&lt;/div&gt;&lt;div&gt;- speed&lt;/div&gt;&lt;div&gt;- sound;&lt;/div&gt;&lt;div&gt;- flyBehavior;&lt;/div&gt;" style="text;strokeColor=none;fillColor=none;align=left;verticalAlign=top;spacingLeft=4;spacingRight=4;overflow=hidden;rotatable=0;points=[[0,0.5],[1,0.5]];portConstraint=eastwest;whiteSpace=wrap;html=1;" vertex="1" parent="TRd4f3PxuL4wZc3-VBU7-1">
          <mxGeometry y="138" width="140" height="112" as="geometry" />
        </mxCell>
      </root>
    </mxGraphModel>
  </diagram>
</mxfile>
